<?xml version="1.0" encoding="UTF-8"?>
<!DOCTYPE svg PUBLIC "-//W3C//DTD SVG 1.1//EN" "http://www.w3.org/Graphics/SVG/1.1/DTD/svg11.dtd">
<!-- Creator: CorelDRAW -->
<svg xmlns="http://www.w3.org/2000/svg" xml:space="preserve" width="2800px" height="2800px" version="1.1" style="shape-rendering:geometricPrecision; text-rendering:geometricPrecision; image-rendering:optimizeQuality; fill-rule:evenodd; clip-rule:evenodd"
viewBox="0 0 2800 2800"
 xmlns:xlink="http://www.w3.org/1999/xlink"
 xmlns:xodm="http://www.corel.com/coreldraw/odm/2003">
 <defs>
  <style type="text/css">
   <![CDATA[
    .str1 {stroke:#FEFEFE;stroke-width:2.08;stroke-miterlimit:2.61313}
    .str0 {stroke:#373435;stroke-width:2.08;stroke-miterlimit:2.61313}
    .fil0 {fill:#009933;fill-rule:nonzero}
    .fil1 {fill:#5FDC68;fill-rule:nonzero}
   ]]>
  </style>
 </defs>
 <g id="Layer_x0020_1">
  <metadata id="CorelCorpID_0Corel-Layer"/>
  <g id="_2089011911808">
   <circle class="fil0 str0" cx="1400" cy="1400" r="1375.82"/>
   <g id="leaf-svgrepo-com.svg">
    <g>
     <path class="fil1 str1" d="M1202.43 2104.94l0 0 0 0c-79.69,-92.94 85.52,-705.27 -884.46,-1123.11 -159.52,30.93 -338.83,892.09 603.67,1155.53 281.75,150.46 237.37,401.28 237.37,540.69l181.23 0c0,0 -74.15,-442.22 257.01,-604.28 225.32,-110.22 847.6,-145.56 1012.74,-1138.88 -314.84,-194.48 -1432.97,184.62 -1407.56,1170.05zm-228.58 -167.58c-19.2,14.2 -45.57,9.07 -58.86,-11.44 -92.24,-142.73 -347.32,-472.04 -460.1,-592.2 -16.54,-17.59 -16.54,-46.23 0,-63.83 16.47,-17.67 43.28,-17.67 59.75,0 119.79,128.21 371.92,453.73 469.92,604.59 13.29,20.51 8.5,48.68 -10.71,62.88zm1182.24 -732.88c-308.41,208.21 -560.47,554.65 -674.13,742.82 -12.63,20.91 -38.85,26.9 -58.42,13.41 -19.57,-13.57 -25.18,-41.5 -12.48,-62.49 118.83,-195.74 374.07,-549.2 699.75,-770.03 19.72,-13.41 45.79,-7.1 58.35,13.96 12.48,21.07 6.64,48.92 -13.07,62.33z"/>
    </g>
   </g>
  </g>
 </g>
</svg>
