<?xml version="1.0" encoding="UTF-8"?>
<!DOCTYPE svg PUBLIC "-//W3C//DTD SVG 1.1//EN" "http://www.w3.org/Graphics/SVG/1.1/DTD/svg11.dtd">
<!-- Creator: CorelDRAW -->
<svg xmlns="http://www.w3.org/2000/svg" xml:space="preserve" width="512px" height="512px" version="1.1" style="shape-rendering:geometricPrecision; text-rendering:geometricPrecision; image-rendering:optimizeQuality; fill-rule:evenodd; clip-rule:evenodd"
viewBox="0 0 512 512"
 xmlns:xlink="http://www.w3.org/1999/xlink"
 xmlns:xodm="http://www.corel.com/coreldraw/odm/2003">
 <defs>
  <style type="text/css">
   <![CDATA[
    .str1 {stroke:#FEFEFE;stroke-width:2.08;stroke-miterlimit:2.61313}
    .str0 {stroke:#373435;stroke-width:2.08;stroke-miterlimit:2.61313}
    .fil0 {fill:#009933;fill-rule:nonzero}
    .fil1 {fill:#5FDC68;fill-rule:nonzero}
   ]]>
  </style>
 </defs>
 <g id="Layer_x0020_1">
  <metadata id="CorelCorpID_0Corel-Layer"/>
  <g id="_2674024168224">
   <circle class="fil0 str0" cx="256" cy="256" r="169.55"/>
   <g id="leaf-svgrepo-com.svg">
    <g>
     <path class="fil1 str1" d="M231.65 342.87l0 0 0 0c-9.82,-11.45 10.54,-86.91 -108.99,-138.4 -19.66,3.81 -41.76,109.93 74.39,142.4 34.72,18.54 29.25,49.45 29.25,66.63l22.33 0c0,0 -9.13,-54.5 31.68,-74.47 27.76,-13.58 104.45,-17.94 124.8,-140.35 -38.8,-23.96 -176.59,22.75 -173.46,144.19zm-28.17 -20.65c-2.36,1.75 -5.61,1.12 -7.25,-1.41 -11.37,-17.59 -42.8,-58.17 -56.7,-72.98 -2.04,-2.17 -2.04,-5.7 0,-7.86 2.03,-2.18 5.33,-2.18 7.36,0 14.77,15.79 45.84,55.91 57.91,74.5 1.64,2.53 1.05,6 -1.32,7.75zm145.69 -90.31c-38,25.65 -69.06,68.35 -83.07,91.53 -1.56,2.58 -4.79,3.32 -7.2,1.66 -2.41,-1.68 -3.1,-5.12 -1.54,-7.7 14.65,-24.13 46.1,-67.68 86.23,-94.9 2.44,-1.65 5.65,-0.87 7.19,1.72 1.54,2.6 0.82,6.03 -1.61,7.69z"/>
    </g>
   </g>
  </g>
 </g>
</svg>
